<svg width="31" height="27" viewBox="0 0 31 27" fill="none" xmlns="http://www.w3.org/2000/svg">
<path fill-rule="evenodd" clip-rule="evenodd" d="M6.53255 26.5163L6.38887 22.206C6.38468 22.0803 6.31104 21.9684 6.19907 21.9111C4.02049 20.7967 0 17.3352 0 11.5885C0 4.19872 6.38205 0 13.7718 0C20.9965 0 27.4185 4.81586 27.7018 11.7796C27.7113 12.0125 27.4792 12.1784 27.2556 12.1125C26.4734 11.8819 25.1537 11.5885 23.8487 11.5885C21.8333 11.5885 15.2833 12.2603 15.2833 18.9782C15.2833 20.9445 15.8271 22.3181 16.3462 23.1217C16.5185 23.3884 16.3228 23.8487 16.0052 23.8487H13.0113C12.9592 23.8487 12.9078 23.8609 12.8611 23.8842L7.01848 26.8055C6.79949 26.915 6.54071 26.761 6.53255 26.5163ZM30.9026 19.3141C30.9026 21.5823 29.4801 23.5588 27.3756 24.5934V26.2845C27.3756 26.5443 27.0934 26.7057 26.8694 26.574L24.7486 25.3265C24.5081 25.3488 24.2639 25.3603 24.0167 25.3603C20.2137 25.3603 17.1308 22.6533 17.1308 19.3141C17.1308 15.9749 20.2137 13.2679 24.0167 13.2679C27.8196 13.2679 30.9026 15.9749 30.9026 19.3141Z" fill="#7D848F"/>
</svg>
