<svg width="20" height="27" viewBox="0 0 20 27" fill="none" xmlns="http://www.w3.org/2000/svg">
<path fill-rule="evenodd" clip-rule="evenodd" d="M10.1664 26.3675C10.1699 26.3675 10.1733 26.3675 10.1768 26.3675C10.1789 26.3675 10.1809 26.3675 10.1829 26.3675C14.5447 26.3654 19.897 25.8557 19.897 22.0008C19.897 19.1304 16.7091 16.4242 14.775 15.2013C14.5749 15.0748 14.5544 14.786 14.7261 14.6231C16.3491 13.0827 17.0572 10.4124 17.0572 7.10498C16.9116 3.34106 13.8868 0.335449 10.1768 0.335449C6.48401 0.335449 3.47014 3.31324 3.29862 7.05265C3.29862 10.4124 4.22483 13.3115 5.60675 14.6231C5.7784 14.786 5.75787 15.0748 5.55785 15.2013C3.62373 16.4242 0.435791 19.1304 0.435791 22.0008C0.435791 25.8557 5.78807 26.3654 10.1499 26.3675C10.1519 26.3675 10.1539 26.3675 10.156 26.3675C10.1595 26.3675 10.1629 26.3675 10.1664 26.3675Z" fill="url(#paint0_linear_36_3)"/>
<defs>
<linearGradient id="paint0_linear_36_3" x1="10.1664" y1="0.335449" x2="10.1664" y2="26.3675" gradientUnits="userSpaceOnUse">
<stop stop-color="#EE7D62"/>
<stop offset="1" stop-color="#EB457F"/>
</linearGradient>
</defs>
</svg>
