<svg width="176" height="46" viewBox="0 0 176 46" fill="none" xmlns="http://www.w3.org/2000/svg">
<path fill-rule="evenodd" clip-rule="evenodd" d="M11.4717 18.1899C20.0889 15.2146 21.5485 7.48155 20.4538 0.380048C20.4538 0.127426 20.6784 -0.0550238 20.8889 0.0151491C29.1413 4.04308 38.4041 12.8428 38.4041 26.0353C38.4041 36.1542 30.5587 45.0943 19.1627 45.0943C9.05775 45.5574 0.482612 37.7261 0.0194707 27.6212C-0.28929 20.9267 3.09305 14.5971 8.81916 11.1165C9.04371 10.9762 9.33844 11.1165 9.33844 11.3691C9.45072 12.7305 9.81562 16.1409 11.3173 18.1899H11.4577H11.4717Z" fill="white"/>
<path d="M67.9355 20.4277H62.3361C62.2338 19.7033 62.025 19.0598 61.7097 18.4973C61.3943 17.9263 60.9895 17.4405 60.4952 17.0399C60.0008 16.6394 59.4298 16.3326 58.7821 16.1195C58.1429 15.9064 57.4483 15.7999 56.6983 15.7999C55.3432 15.7999 54.1628 16.1365 53.1571 16.8098C52.1514 17.4746 51.3716 18.4462 50.8176 19.7246C50.2636 20.9945 49.9866 22.5371 49.9866 24.3524C49.9866 26.2189 50.2636 27.7871 50.8176 29.057C51.3801 30.3269 52.1642 31.2857 53.1699 31.9334C54.1756 32.5811 55.3389 32.905 56.6599 32.905C57.4014 32.905 58.0875 32.807 58.7182 32.611C59.3574 32.415 59.9241 32.1294 60.4185 31.7544C60.9128 31.3709 61.3219 30.9064 61.6457 30.361C61.9781 29.8155 62.2082 29.1934 62.3361 28.4945L67.9355 28.5201C67.7906 29.7218 67.4284 30.8809 66.8489 31.9973C66.2778 33.1053 65.5065 34.0982 64.5349 34.976C63.5719 35.8453 62.4213 36.5357 61.0832 37.0471C59.7537 37.5499 58.2494 37.8013 56.5704 37.8013C54.2352 37.8013 52.1472 37.2729 50.3062 36.2161C48.4739 35.1593 47.025 33.6294 45.9597 31.6266C44.9028 29.6238 44.3744 27.199 44.3744 24.3524C44.3744 21.4973 44.9114 19.0684 45.9852 17.0655C47.0591 15.0627 48.5165 13.5371 50.3574 12.4888C52.1983 11.432 54.2693 10.9036 56.5704 10.9036C58.0875 10.9036 59.4937 11.1167 60.7892 11.5428C62.0932 11.9689 63.248 12.5911 64.2537 13.4093C65.2594 14.2189 66.0775 15.2118 66.7082 16.388C67.3474 17.5641 67.7565 18.9107 67.9355 20.4277ZM74.6551 11.2615L80.9832 31.1536H81.2261L87.567 11.2615H93.7034L84.6778 37.4434H77.5443L68.5059 11.2615H74.6551ZM94.7724 37.4434V17.807H100.218V37.4434H94.7724ZM97.5082 15.2757C96.6985 15.2757 96.0039 15.0073 95.4244 14.4703C94.8533 13.9249 94.5678 13.2729 94.5678 12.5144C94.5678 11.7644 94.8533 11.1209 95.4244 10.584C96.0039 10.0385 96.6985 9.7658 97.5082 9.7658C98.3178 9.7658 99.0082 10.0385 99.5792 10.584C100.159 11.1209 100.449 11.7644 100.449 12.5144C100.449 13.2729 100.159 13.9249 99.5792 14.4703C99.0082 15.0073 98.3178 15.2757 97.5082 15.2757ZM108.047 26.0911V37.4434H102.601V17.807H107.791V21.2715H108.021C108.456 20.1294 109.185 19.226 110.208 18.5613C111.23 17.888 112.47 17.5513 113.928 17.5513C115.291 17.5513 116.48 17.8496 117.494 18.4462C118.509 19.0428 119.297 19.8951 119.859 21.003C120.422 22.1024 120.703 23.4149 120.703 24.9405V37.4434H115.257V25.9121C115.266 24.7104 114.959 23.7729 114.337 23.0996C113.715 22.4178 112.858 22.0769 111.767 22.0769C111.034 22.0769 110.386 22.2346 109.824 22.5499C109.27 22.8652 108.835 23.3255 108.52 23.9306C108.213 24.5272 108.056 25.2473 108.047 26.0911ZM130.251 37.763C128.76 37.763 127.409 37.3794 126.199 36.6124C124.997 35.8368 124.042 34.699 123.335 33.199C122.636 31.6905 122.287 29.8411 122.287 27.6507C122.287 25.4007 122.649 23.53 123.373 22.0385C124.098 20.5385 125.061 19.4178 126.263 18.6763C127.473 17.9263 128.798 17.5513 130.239 17.5513C131.338 17.5513 132.254 17.7388 132.987 18.1138C133.729 18.4803 134.325 18.9405 134.777 19.4945C135.237 20.0399 135.587 20.5769 135.825 21.1053H135.991V11.2615H141.425V37.4434H136.055V34.2985H135.825C135.569 34.8439 135.207 35.3851 134.739 35.9221C134.278 36.4505 133.677 36.8894 132.936 37.2388C132.203 37.5882 131.308 37.763 130.251 37.763ZM131.977 33.4292C132.855 33.4292 133.596 33.1905 134.202 32.7132C134.815 32.2275 135.284 31.5499 135.608 30.6806C135.94 29.8113 136.106 28.7928 136.106 27.6252C136.106 26.4576 135.944 25.4434 135.621 24.5826C135.297 23.7218 134.828 23.057 134.214 22.5882C133.601 22.1195 132.855 21.8851 131.977 21.8851C131.082 21.8851 130.328 22.128 129.714 22.6138C129.101 23.0996 128.636 23.7729 128.321 24.6337C128.006 25.4945 127.848 26.4917 127.848 27.6252C127.848 28.7672 128.006 29.7772 128.321 30.655C128.645 31.5243 129.109 32.2061 129.714 32.7005C130.328 33.1863 131.082 33.4292 131.977 33.4292ZM152.871 37.8269C150.851 37.8269 149.113 37.4178 147.655 36.5996C146.206 35.7729 145.09 34.6053 144.306 33.0968C143.522 31.5797 143.13 29.7857 143.13 27.7147C143.13 25.6948 143.522 23.9221 144.306 22.3965C145.09 20.8709 146.194 19.682 147.617 18.8297C149.049 17.9774 150.728 17.5513 152.654 17.5513C153.949 17.5513 155.155 17.7601 156.272 18.1777C157.397 18.5868 158.377 19.2047 159.212 20.0314C160.056 20.8581 160.712 21.8979 161.181 23.1507C161.649 24.3951 161.884 25.8524 161.884 27.5229V29.0186H145.303V25.6436H156.757C156.757 24.8596 156.587 24.165 156.246 23.5598C155.905 22.9547 155.432 22.4817 154.827 22.1408C154.23 21.7914 153.536 21.6167 152.743 21.6167C151.917 21.6167 151.184 21.8084 150.544 22.1919C149.914 22.5669 149.419 23.074 149.061 23.7132C148.703 24.3439 148.52 25.0471 148.512 25.8226V29.0314C148.512 30.003 148.691 30.8425 149.049 31.5499C149.415 32.2573 149.931 32.8027 150.596 33.1863C151.26 33.5698 152.049 33.7615 152.961 33.7615C153.566 33.7615 154.12 33.6763 154.623 33.5059C155.125 33.3354 155.556 33.0797 155.914 32.7388C156.272 32.3979 156.544 31.9803 156.732 31.486L161.769 31.8184C161.513 33.0286 160.989 34.0854 160.196 34.9888C159.412 35.8837 158.398 36.5826 157.154 37.0854C155.918 37.5797 154.49 37.8269 152.871 37.8269ZM163.458 37.4434V17.807H168.738V21.2331H168.942C169.3 20.0144 169.901 19.0939 170.745 18.4718C171.589 17.8411 172.56 17.5257 173.66 17.5257C173.932 17.5257 174.226 17.5428 174.542 17.5769C174.857 17.611 175.134 17.6578 175.373 17.7175V22.5499C175.117 22.4732 174.763 22.405 174.312 22.3453C173.86 22.2857 173.446 22.2559 173.071 22.2559C172.27 22.2559 171.554 22.4306 170.924 22.78C170.302 23.1209 169.807 23.5982 169.441 24.2118C169.083 24.8255 168.904 25.5328 168.904 26.334V37.4434H163.458Z" fill="white"/>
</svg>
