<svg width="97" height="21" viewBox="0 0 97 21" fill="none" xmlns="http://www.w3.org/2000/svg">
<path fill-rule="evenodd" clip-rule="evenodd" d="M5.6755 8.46723C9.93878 7.08224 10.6609 3.48258 10.1193 0.176909C10.1193 0.0593154 10.2304 -0.025613 10.3346 0.00705177C14.4173 1.88201 19 5.97817 19 12.1192C19 16.8294 15.1186 20.9909 9.48051 20.9909C4.48122 21.2065 0.238767 17.5611 0.0096329 12.8574C-0.143123 9.74116 1.53025 6.79479 4.36318 5.17462C4.47428 5.10929 4.62009 5.17462 4.62009 5.29221C4.67564 5.92591 4.85617 7.51342 5.59912 8.46723H5.66855H5.6755Z" fill="#EB545D"/>
<path d="M37.098 9.97485H33.9872C33.9304 9.57239 33.8144 9.21491 33.6392 8.90241C33.464 8.58517 33.2391 8.31529 32.9645 8.09275C32.6899 7.87021 32.3726 7.69976 32.0128 7.58139C31.6577 7.46302 31.2718 7.40383 30.8551 7.40383C30.1023 7.40383 29.4465 7.59086 28.8878 7.96491C28.3291 8.33423 27.8958 8.874 27.5881 9.58423C27.2803 10.2897 27.1264 11.1467 27.1264 12.1553C27.1264 13.1922 27.2803 14.0634 27.5881 14.7689C27.9006 15.4744 28.3362 16.0071 28.8949 16.3669C29.4536 16.7267 30.0999 16.9067 30.8338 16.9067C31.2457 16.9067 31.6269 16.8522 31.9773 16.7433C32.3324 16.6344 32.6473 16.4758 32.9219 16.2675C33.1965 16.0544 33.4238 15.7963 33.6037 15.4933C33.7884 15.1903 33.9162 14.8446 33.9872 14.4564L37.098 14.4706C37.0175 15.1382 36.8163 15.7821 36.4943 16.4024C36.1771 17.0179 35.7486 17.5696 35.2088 18.0572C34.6738 18.5402 34.0346 18.9237 33.2912 19.2078C32.5526 19.4872 31.7169 19.6268 30.7841 19.6268C29.4867 19.6268 28.3267 19.3333 27.304 18.7462C26.286 18.159 25.4811 17.3091 24.8892 16.1964C24.3021 15.0838 24.0085 13.7367 24.0085 12.1553C24.0085 10.5691 24.3068 9.21965 24.9034 8.10696C25.5 6.99427 26.3097 6.14673 27.3324 5.56434C28.3551 4.97722 29.5057 4.68366 30.7841 4.68366C31.6269 4.68366 32.4081 4.80203 33.1278 5.03877C33.8523 5.27552 34.4938 5.62116 35.0526 6.0757C35.6113 6.52552 36.0658 7.07713 36.4162 7.73053C36.7713 8.38394 36.9986 9.13205 37.098 9.97485ZM40.8311 4.88252L44.3467 15.9337H44.4817L48.0044 4.88252H51.4135L46.3993 19.428H42.4362L37.4149 4.88252H40.8311ZM52.0074 19.428V8.51889H55.033V19.428H52.0074ZM53.5273 7.11264C53.0775 7.11264 52.6916 6.96349 52.3696 6.66519C52.0524 6.36216 51.8937 5.99995 51.8937 5.57855C51.8937 5.16188 52.0524 4.8044 52.3696 4.5061C52.6916 4.20307 53.0775 4.05156 53.5273 4.05156C53.9771 4.05156 54.3606 4.20307 54.6778 4.5061C54.9998 4.8044 55.1608 5.16188 55.1608 5.57855C55.1608 5.99995 54.9998 6.36216 54.6778 6.66519C54.3606 6.96349 53.9771 7.11264 53.5273 7.11264ZM59.3822 13.1212V19.428H56.3566V8.51889H59.2401V10.4436H59.368C59.6094 9.80913 60.0143 9.30724 60.5825 8.93792C61.1506 8.56387 61.8396 8.37684 62.6492 8.37684C63.4068 8.37684 64.0673 8.54256 64.6308 8.874C65.1942 9.20544 65.6322 9.67892 65.9447 10.2945C66.2572 10.9053 66.4134 11.6344 66.4134 12.482V19.428H63.3879V13.0217C63.3926 12.3541 63.2221 11.8333 62.8765 11.4592C62.5308 11.0804 62.055 10.891 61.4489 10.891C61.0417 10.891 60.6819 10.9786 60.3694 11.1538C60.0616 11.329 59.8201 11.5847 59.645 11.9209C59.4745 12.2523 59.3869 12.6524 59.3822 13.1212ZM71.7179 19.6055C70.8893 19.6055 70.1388 19.3925 69.4665 18.9663C68.7989 18.5355 68.2686 17.9034 67.8756 17.07C67.4873 16.232 67.2932 15.2045 67.2932 13.9876C67.2932 12.7376 67.4944 11.6983 67.8969 10.8697C68.2993 10.0364 68.8344 9.41377 69.502 9.00184C70.1743 8.58518 70.9106 8.37684 71.7108 8.37684C72.3216 8.37684 72.8306 8.48101 73.2378 8.68934C73.6497 8.89294 73.9812 9.14862 74.2321 9.45639C74.4878 9.75942 74.6819 10.0577 74.8145 10.3513H74.9068V4.88252H77.9253V19.428H74.9423V17.6808H74.8145C74.6724 17.9838 74.4712 18.2845 74.2108 18.5828C73.9551 18.8764 73.6213 19.1202 73.2094 19.3143C72.8022 19.5085 72.305 19.6055 71.7179 19.6055ZM72.6767 17.1979C73.1644 17.1979 73.5763 17.0653 73.9125 16.8001C74.2534 16.5303 74.5138 16.1538 74.6937 15.6709C74.8784 15.1879 74.9707 14.6221 74.9707 13.9734C74.9707 13.3248 74.8808 12.7613 74.7009 12.2831C74.5209 11.8049 74.2605 11.4356 73.9196 11.1751C73.5787 10.9147 73.1644 10.7845 72.6767 10.7845C72.1795 10.7845 71.7605 10.9195 71.4196 11.1893C71.0787 11.4592 70.8206 11.8333 70.6455 12.3115C70.4703 12.7897 70.3827 13.3437 70.3827 13.9734C70.3827 14.6079 70.4703 15.169 70.6455 15.6567C70.8254 16.1396 71.0834 16.5184 71.4196 16.793C71.7605 17.0629 72.1795 17.1979 72.6767 17.1979ZM84.2844 19.641C83.1623 19.641 82.1964 19.4138 81.3867 18.9592C80.5818 18.4999 79.9615 17.8513 79.5259 17.0132C79.0903 16.1704 78.8725 15.1737 78.8725 14.0231C78.8725 12.901 79.0903 11.9161 79.5259 11.0686C79.9615 10.2211 80.5747 9.56055 81.3654 9.08707C82.1609 8.61358 83.0936 8.37684 84.1637 8.37684C84.8834 8.37684 85.5534 8.49285 86.1737 8.72485C86.7987 8.95213 87.3432 9.2954 87.8072 9.75468C88.2759 10.214 88.6405 10.7916 88.9009 11.4876C89.1613 12.1789 89.2915 12.9886 89.2915 13.9166V14.7476H80.0799V12.8726H86.4435C86.4435 12.437 86.3488 12.0511 86.1594 11.7149C85.9701 11.3787 85.7073 11.116 85.3711 10.9266C85.0397 10.7324 84.6538 10.6354 84.2134 10.6354C83.7541 10.6354 83.3469 10.7419 82.9918 10.955C82.6415 11.1633 82.3668 11.445 82.168 11.8001C81.9691 12.1505 81.8673 12.5411 81.8626 12.972V14.7547C81.8626 15.2945 81.962 15.7608 82.1609 16.1538C82.3645 16.5468 82.6509 16.8499 83.0202 17.0629C83.3896 17.276 83.8275 17.3825 84.3342 17.3825C84.6703 17.3825 84.9781 17.3352 85.2575 17.2405C85.5368 17.1458 85.7759 17.0037 85.9748 16.8143C86.1737 16.6249 86.3252 16.3929 86.4293 16.1183L89.2276 16.303C89.0856 16.9753 88.7944 17.5624 88.354 18.0643C87.9184 18.5615 87.355 18.9498 86.6637 19.2291C85.9772 19.5037 85.1841 19.641 84.2844 19.641ZM90.166 19.428V8.51889H93.0992V10.4223H93.2129C93.4117 9.74521 93.7455 9.23385 94.2143 8.88821C94.683 8.53783 95.2228 8.36264 95.8336 8.36264C95.9851 8.36264 96.1485 8.37211 96.3237 8.39105C96.4988 8.40999 96.6527 8.43603 96.7853 8.46917V11.1538C96.6433 11.1112 96.4468 11.0733 96.1958 11.0402C95.9449 11.0071 95.7152 10.9905 95.5069 10.9905C95.0618 10.9905 94.6641 11.0875 94.3137 11.2817C93.9681 11.4711 93.6934 11.7362 93.4898 12.0771C93.291 12.418 93.1915 12.811 93.1915 13.2561V19.428H90.166Z" fill="#EB545D"/>
</svg>
