<svg width="209" height="42" viewBox="0 0 209 42" fill="none" xmlns="http://www.w3.org/2000/svg">
<path d="M143.246 15.8637C143.267 15.1865 143.208 14.5653 143.069 14C142.897 13.2983 142.602 12.6951 142.183 12.1904C141.765 11.6733 141.217 11.2794 140.54 11.0085C139.863 10.7377 139.056 10.6023 138.121 10.6023C136.323 10.6023 134.717 11.0516 133.301 11.9503C131.885 12.8367 130.71 14.1108 129.774 15.7728L143.246 15.8637ZM143.246 15.8637H143.217V16.3637L143.715 16.4058C143.717 16.3917 143.718 16.3777 143.719 16.3637H153.484C153.669 14.0123 153.441 11.9257 152.801 10.1037C152.161 8.28175 151.164 6.74908 149.809 5.5057L143.246 15.8637ZM202.38 35.4722C202.542 33.9325 202.112 32.5882 201.087 31.4811C200.081 30.3797 198.808 29.8239 197.303 29.8239C195.735 29.8239 194.333 30.371 193.113 31.4443L193.111 31.4461C191.905 32.5204 191.206 33.8326 191.045 35.3681L191.045 35.3695C190.884 36.9382 191.296 38.3053 192.295 39.4277L192.299 39.4324C193.312 40.5408 194.625 41.0909 196.195 41.0909C197.172 41.0909 198.11 40.8391 199.004 40.3454L199.006 40.3442C199.906 39.8414 200.662 39.1717 201.27 38.3386M202.38 35.4722C202.272 36.5219 201.901 37.4801 201.27 38.3386M202.38 35.4722C202.38 35.4724 202.38 35.4726 202.38 35.4728L201.883 35.4205M202.38 35.4722C202.38 35.4719 202.38 35.4717 202.38 35.4715L201.883 35.4205M201.27 38.3386L200.867 38.0426M201.27 38.3386C201.27 38.3382 201.271 38.3379 201.271 38.3375L200.867 38.0426M200.867 38.0426C200.301 38.8182 199.599 39.4399 198.762 39.9077M200.867 38.0426C201.446 37.2548 201.784 36.3807 201.883 35.4205M198.762 39.9077L201.883 35.4205M198.762 39.9077C197.937 40.3632 197.082 40.5909 196.195 40.5909C194.755 40.5909 193.579 40.0924 192.668 39.0952C191.77 38.0857 191.394 36.8608 191.542 35.4205C191.69 34.0171 192.324 32.8168 193.444 31.8196C194.576 30.8225 195.863 30.3239 197.303 30.3239C198.67 30.3239 199.808 30.8225 200.719 31.8196L198.762 39.9077ZM7.83749 1.68184H7.41366L7.34424 2.09995L1.06583 39.9181L0.969231 40.5H1.55908H11.6045H12.0276L12.0976 40.0828L15.4925 19.8494L19.9061 39.8125L19.9928 40.2046H20.3943H26.4511H26.7455L26.8883 39.9471L37.8726 20.1483L34.5999 39.9184L34.5036 40.5H35.0932H45.1386H45.5625L45.6319 40.0819L51.9103 2.26373L52.0069 1.68184H51.417H38.6386H38.3496L38.2053 1.93232L26.1815 22.812L21.1016 2.06294L21.0083 1.68184H20.6159H7.83749ZM57.7483 40.5H58.066L58.2009 40.2123L61.461 33.2614H73.1765L74.0936 40.0668L74.152 40.5H74.5892H85.6687H86.2574L86.1621 39.9191L79.9576 2.10089L79.8888 1.68184H79.4642H65.4301H65.12L64.9822 1.95963L46.2208 39.7778L45.8625 40.5H46.6687H57.7483ZM70.5614 13.8576L72.0631 25H65.3356L70.5614 13.8576ZM85.8056 10.3709L85.7066 10.9546H86.2986H97.0843L92.3053 39.9186L92.2093 40.5H92.7986H102.918H103.342L103.411 40.0814L108.217 10.9546H119.168H119.59L119.661 10.5382L121.064 2.26547L121.163 1.68184H120.571H87.702H87.2797L87.209 2.09821L85.8056 10.3709ZM153.484 16.8637H153.946L153.983 16.4028C154.172 13.9971 153.94 11.8385 153.273 9.93797C152.607 8.04319 151.566 6.44016 150.149 5.13866C148.748 3.82851 147.028 2.84078 144.999 2.16885C142.982 1.49659 140.712 1.16479 138.194 1.16479C134.845 1.16479 131.68 1.88948 128.706 3.3389C125.722 4.79295 123.191 6.95369 121.115 9.80974C119.03 12.679 117.645 16.2211 116.946 20.4178L116.945 20.4206C116.247 24.7617 116.469 28.4883 117.655 31.5743L117.656 31.5759C118.85 34.6505 120.778 37.0058 123.44 38.618L123.441 38.6186C126.104 40.2245 129.256 41.0171 132.876 41.0171C135.638 41.0171 138.139 40.5776 140.374 39.6891C142.587 38.8086 144.52 37.6541 146.167 36.2226L146.169 36.2211C147.804 34.7873 149.143 33.2161 150.181 31.5068L150.182 31.5054C151.213 29.7958 151.937 28.1121 152.345 26.4548L152.497 25.8353H151.859H141.518H141.156L141.043 26.1794C140.802 26.9157 140.452 27.5867 139.993 28.1946L139.992 28.1958C139.546 28.7896 139.003 29.3055 138.358 29.7434C137.729 30.1659 137.004 30.4957 136.175 30.729L136.174 30.7295C135.363 30.9612 134.462 31.0796 133.467 31.0796C131.994 31.0796 130.846 30.7355 129.982 30.0901C129.138 29.4515 128.544 28.4719 128.231 27.0944C127.929 25.713 127.934 23.942 128.273 21.7627C128.659 19.5192 129.308 17.608 130.209 16.0194L130.21 16.018C131.11 14.4185 132.231 13.2102 133.566 12.3741L133.569 12.3724C134.899 11.5283 136.411 11.1023 138.121 11.1023C139.01 11.1023 139.75 11.2312 140.354 11.4728C140.96 11.715 141.435 12.0606 141.794 12.505L141.798 12.5095C142.164 12.9504 142.428 13.4834 142.584 14.1193C142.741 14.7583 142.789 15.4904 142.719 16.3216L142.673 16.8637H143.217H153.484ZM151.691 39.9181L151.595 40.5H152.184H162.451H162.876L162.945 40.0814L165.313 25.7273H177.891L175.549 39.9186L175.453 40.5H176.042H186.309H186.733L186.803 40.0819L193.081 2.26373L193.178 1.68184H192.588H182.321H181.896L181.827 2.10044L179.459 16.4546H166.882L169.223 2.26324L169.319 1.68184H168.73H158.463H158.039L157.97 2.09995L151.691 39.9181ZM207.765 2.2807L207.886 1.68184H207.275H197.008H196.568L196.512 2.11844L193.188 28.1184L193.116 28.6818H193.684H202.031H202.44L202.521 28.2807L207.765 2.2807Z" stroke="#6DE5B5"/>
</svg>
