<svg width="207" height="72" viewBox="0 0 207 72" fill="none" xmlns="http://www.w3.org/2000/svg">
<path d="M70.5991 0.727272L66.7355 24H60.4173L64.281 0.727272H70.5991ZM70.8135 5.81818L71.6771 0.727272H91.9044L91.0407 5.81818H84.0407L81.0407 24H74.8135L77.8135 5.81818H70.8135ZM98.2749 0.727272L97.8204 3.45454C97.6992 4.19697 97.4265 4.93939 97.0022 5.68182C96.578 6.41667 96.0855 7.10227 95.5249 7.73864C94.9643 8.36742 94.4113 8.89394 93.8659 9.31818L91.4568 8C91.8583 7.45455 92.2484 6.82197 92.6272 6.10227C93.006 5.38257 93.2825 4.5 93.4568 3.45454L93.9113 0.727272H98.2749ZM111.259 8C111.327 7.25 111.146 6.66288 110.714 6.23864C110.282 5.80682 109.555 5.59091 108.532 5.59091C107.88 5.59091 107.335 5.66667 106.896 5.81818C106.464 5.9697 106.127 6.17803 105.884 6.44318C105.649 6.70833 105.502 7.01515 105.441 7.36364C105.373 7.63636 105.377 7.88636 105.452 8.11364C105.536 8.33333 105.691 8.53409 105.918 8.71591C106.153 8.89773 106.46 9.06061 106.839 9.20455C107.225 9.34848 107.683 9.47727 108.214 9.59091L110.032 10C111.274 10.2727 112.316 10.6326 113.157 11.0795C114.005 11.5189 114.672 12.0417 115.157 12.6477C115.642 13.2538 115.96 13.9318 116.111 14.6818C116.271 15.4318 116.274 16.25 116.123 17.1364C115.865 18.6667 115.271 19.9621 114.339 21.0227C113.407 22.0833 112.191 22.8902 110.691 23.4432C109.191 23.9962 107.456 24.2727 105.486 24.2727C103.471 24.2727 101.759 23.9735 100.35 23.375C98.9485 22.7689 97.9334 21.8447 97.3046 20.6023C96.6834 19.3523 96.5319 17.7576 96.8501 15.8182H102.85C102.759 16.5303 102.835 17.1288 103.077 17.6136C103.32 18.0985 103.71 18.4659 104.248 18.7159C104.786 18.9659 105.456 19.0909 106.259 19.0909C106.941 19.0909 107.524 19.0076 108.009 18.8409C108.494 18.6742 108.877 18.4432 109.157 18.1477C109.437 17.8523 109.608 17.5152 109.668 17.1364C109.729 16.7879 109.668 16.4773 109.486 16.2045C109.305 15.9318 108.975 15.6856 108.498 15.4659C108.021 15.2462 107.365 15.0455 106.532 14.8636L104.305 14.3636C102.327 13.9091 100.835 13.1591 99.8273 12.1136C98.8198 11.0682 98.4637 9.63636 98.7591 7.81818C99.0016 6.33333 99.6114 5.03788 100.589 3.93182C101.574 2.81818 102.824 1.95454 104.339 1.34091C105.861 0.719696 107.547 0.40909 109.396 0.40909C111.274 0.40909 112.846 0.723484 114.111 1.35227C115.384 1.98106 116.297 2.86364 116.85 4C117.411 5.13636 117.562 6.4697 117.305 8H111.259ZM127.25 24H120.432L131.978 0.727272H140.614L144.432 24H137.614L135.341 7.13636H135.159L127.25 24ZM127.523 14.8182H140.341L139.523 19.5455H126.705L127.523 14.8182ZM6.83743 33.1818H19.6158L24.8602 54.6023H25.3033L37.6386 33.1818H50.417L44.1386 71H34.0931L37.7124 49.1364H37.417L25.4511 70.7045H19.3942L14.5931 48.9886H14.2977L10.6045 71H0.559017L6.83743 33.1818ZM56.7482 71H45.6686L64.43 33.1818H78.4641L84.6686 71H73.5891L69.8959 43.5966H69.6005L56.7482 71ZM57.1914 56.0795H78.0209L76.6914 63.7614H55.8618L57.1914 56.0795ZM85.2985 41.4545L86.7019 33.1818H119.571L118.168 41.4545H106.793L101.918 71H91.7985L96.6735 41.4545H85.2985ZM152.484 47.3636H142.217C142.291 46.4896 142.242 45.7017 142.069 45C141.897 44.2983 141.602 43.6951 141.183 43.1903C140.764 42.6733 140.217 42.2794 139.54 42.0085C138.862 41.7377 138.056 41.6023 137.121 41.6023C135.323 41.6023 133.717 42.0516 132.301 42.9503C130.885 43.8366 129.71 45.1108 128.774 46.7727C127.838 48.4223 127.174 50.392 126.78 52.6818C126.435 54.8977 126.423 56.7382 126.743 58.2031C127.075 59.6681 127.721 60.7637 128.682 61.4901C129.654 62.2164 130.916 62.5795 132.467 62.5795C133.501 62.5795 134.449 62.4564 135.311 62.2102C136.185 61.964 136.96 61.6132 137.638 61.1577C138.327 60.6899 138.912 60.1359 139.392 59.4957C139.884 58.8433 140.26 58.1231 140.518 57.3352H150.859C150.465 58.9356 149.764 60.5729 148.754 62.2472C147.745 63.9091 146.44 65.4418 144.839 66.8452C143.239 68.2363 141.355 69.3627 139.189 70.2244C137.022 71.0862 134.585 71.517 131.876 71.517C128.331 71.517 125.272 70.7415 122.699 69.1903C120.138 67.6392 118.279 65.3741 117.122 62.3949C115.977 59.4157 115.749 55.7841 116.439 51.5C117.128 47.3636 118.488 43.8982 120.52 41.1037C122.551 38.3092 125.019 36.2041 127.924 34.7884C130.83 33.3726 133.92 32.6648 137.194 32.6648C139.669 32.6648 141.885 32.991 143.842 33.6435C145.812 34.2959 147.468 35.25 148.809 36.5057C150.164 37.7491 151.161 39.2817 151.801 41.1037C152.441 42.9257 152.669 45.0123 152.484 47.3636ZM151.184 71L157.463 33.1818H167.73L165.292 47.9545H178.883L181.321 33.1818H191.588L185.309 71H175.042L177.48 56.2273H163.889L161.451 71H151.184ZM206.275 33.1818L201.03 59.1818H192.684L196.008 33.1818H206.275ZM195.195 71.5909C193.755 71.5909 192.579 71.0923 191.668 70.0952C190.77 69.0857 190.394 67.8608 190.542 66.4205C190.69 65.017 191.324 63.8168 192.444 62.8196C193.576 61.8224 194.863 61.3239 196.303 61.3239C197.67 61.3239 198.808 61.8224 199.719 62.8196C200.643 63.8168 201.03 65.017 200.883 66.4205C200.784 67.3807 200.446 68.2547 199.867 69.0426C199.301 69.8182 198.599 70.4399 197.762 70.9077C196.937 71.3632 196.082 71.5909 195.195 71.5909Z" fill="#3DF5AC"/>
</svg>
