<svg width="62" height="62" viewBox="0 0 62 62" fill="none" xmlns="http://www.w3.org/2000/svg">
<circle cx="31.2308" cy="31.2308" r="30.2308" stroke="#D94A38" stroke-width="0.671795"/>
<path fill-rule="evenodd" clip-rule="evenodd" d="M41.0787 19.8766C40.0949 18.8928 38.4998 18.8928 37.516 19.8766L31.0714 26.3212L24.6267 19.8766C23.6429 18.8928 22.0478 18.8928 21.064 19.8766L19.8764 21.0642C18.8926 22.048 18.8926 23.6431 19.8764 24.6269L26.321 31.0715L19.8764 37.5162C18.8926 38.5 18.8926 40.0951 19.8764 41.0789L21.064 42.2665C22.0478 43.2503 23.6429 43.2503 24.6267 42.2665L31.0714 35.8218L37.516 42.2665C38.4998 43.2503 40.0949 43.2503 41.0787 42.2665L42.2663 41.0789C43.2501 40.0951 43.2501 38.5 42.2663 37.5162L35.8217 31.0715L42.2663 24.6269C43.2501 23.6431 43.2501 22.048 42.2663 21.0642L41.0787 19.8766Z" fill="url(#paint0_linear_4_37)"/>
<defs>
<linearGradient id="paint0_linear_4_37" x1="17.833" y1="45.7943" x2="32.8501" y2="5.93737" gradientUnits="userSpaceOnUse">
<stop stop-color="#EA4080"/>
<stop offset="1" stop-color="#EE805F"/>
</linearGradient>
</defs>
</svg>
