<svg width="62" height="62" viewBox="0 0 62 62" fill="none" xmlns="http://www.w3.org/2000/svg">
<circle cx="31.2308" cy="31.2308" r="30.2308" fill="#D94A38" stroke="#D94A38" stroke-width="0.671795"/>
<path fill-rule="evenodd" clip-rule="evenodd" d="M41.0787 19.8765C40.0949 18.8927 38.4998 18.8927 37.516 19.8765L31.0714 26.3212L24.6267 19.8765C23.6429 18.8927 22.0478 18.8927 21.064 19.8765L19.8764 21.0641C18.8926 22.0479 18.8926 23.643 19.8764 24.6268L26.321 31.0715L19.8764 37.5161C18.8926 38.4999 18.8926 40.095 19.8764 41.0788L21.064 42.2664C22.0478 43.2502 23.6429 43.2502 24.6267 42.2664L31.0714 35.8218L37.516 42.2664C38.4998 43.2502 40.0949 43.2502 41.0787 42.2664L42.2663 41.0788C43.2501 40.095 43.2501 38.4999 42.2663 37.5161L35.8217 31.0715L42.2663 24.6268C43.2501 23.643 43.2501 22.0479 42.2663 21.0641L41.0787 19.8765Z" fill="white"/>
</svg>
