<svg width="43" height="43" viewBox="0 0 43 43" fill="none" xmlns="http://www.w3.org/2000/svg">
<g filter="url(#filter0_d_4_675)">
<circle cx="21.5" cy="18.5" r="15.5" fill="white"/>
<circle cx="21.5" cy="18.5" r="15.5" fill="url(#paint0_linear_4_675)"/>
</g>
<path fill-rule="evenodd" clip-rule="evenodd" d="M29.5 18.9997C29.5 18.1713 28.8284 17.4997 28 17.4997L23.5 17.4997L23.5 12.9997C23.5 12.1713 22.8284 11.4997 22 11.4997C21.1716 11.4997 20.5 12.1713 20.5 12.9997V17.4997L16 17.4997C15.1716 17.4997 14.5 18.1713 14.5 18.9997C14.5 19.8282 15.1716 20.4997 16 20.4997L20.5 20.4997L20.5 24.9997C20.5 25.8282 21.1716 26.4997 22 26.4997C22.8284 26.4997 23.5 25.8282 23.5 24.9997L23.5 20.4997L28 20.4997C28.8284 20.4997 29.5 19.8282 29.5 18.9997Z" fill="white"/>
<defs>
<filter id="filter0_d_4_675" x="0.961538" y="0.984615" width="41.0769" height="41.0769" filterUnits="userSpaceOnUse" color-interpolation-filters="sRGB">
<feFlood flood-opacity="0" result="BackgroundImageFix"/>
<feColorMatrix in="SourceAlpha" type="matrix" values="0 0 0 0 0 0 0 0 0 0 0 0 0 0 0 0 0 0 127 0" result="hardAlpha"/>
<feOffset dy="3.02308"/>
<feGaussianBlur stdDeviation="2.51923"/>
<feComposite in2="hardAlpha" operator="out"/>
<feColorMatrix type="matrix" values="0 0 0 0 0 0 0 0 0 0 0 0 0 0 0 0 0 0 0.15 0"/>
<feBlend mode="normal" in2="BackgroundImageFix" result="effect1_dropShadow_4_675"/>
<feBlend mode="normal" in="SourceGraphic" in2="effect1_dropShadow_4_675" result="shape"/>
</filter>
<linearGradient id="paint0_linear_4_675" x1="6" y1="18.5" x2="37" y2="18.5" gradientUnits="userSpaceOnUse">
<stop stop-color="#EA4080"/>
<stop offset="1" stop-color="#EE805F"/>
</linearGradient>
</defs>
</svg>
