<svg width="20" height="27" viewBox="0 0 20 27" fill="none" xmlns="http://www.w3.org/2000/svg">
<path fill-rule="evenodd" clip-rule="evenodd" d="M10.2077 26.927C10.2111 26.927 10.2146 26.927 10.2181 26.927C10.2201 26.927 10.2222 26.9269 10.2242 26.9269C14.586 26.9249 19.9383 26.4152 19.9383 22.5603C19.9383 19.6898 16.7503 16.9836 14.8162 15.7607C14.6162 15.6342 14.5957 15.3455 14.7673 15.1826C16.3903 13.6422 17.0985 10.9718 17.0985 7.66443C16.9528 3.90051 13.9281 0.894897 10.2181 0.894897C6.52527 0.894897 3.5114 3.87269 3.33988 7.6121C3.33988 10.9718 4.26609 13.871 5.64801 15.1826C5.81966 15.3455 5.79913 15.6342 5.59911 15.7607C3.66499 16.9836 0.477051 19.6898 0.477051 22.5603C0.477051 26.4152 5.82933 26.9249 10.1911 26.9269C10.1932 26.9269 10.1952 26.927 10.1972 26.927C10.2007 26.927 10.2042 26.927 10.2077 26.927Z" fill="#7D848F"/>
</svg>
