<svg width="32" height="28" viewBox="0 0 32 28" fill="none" xmlns="http://www.w3.org/2000/svg">
<path fill-rule="evenodd" clip-rule="evenodd" d="M7.49129 26.9569L7.34761 22.6467C7.34342 22.521 7.26978 22.409 7.15781 22.3518C4.97923 21.2374 0.95874 17.7759 0.95874 12.0291C0.95874 4.63939 7.34079 0.440674 14.7305 0.440674C21.9552 0.440674 28.3772 5.25653 28.6605 12.2202C28.67 12.4531 28.4379 12.6191 28.2144 12.5531C27.4322 12.3226 26.1125 12.0291 24.8075 12.0291C22.7921 12.0291 16.2421 12.7009 16.2421 19.4189C16.2421 21.3852 16.7858 22.7588 17.305 23.5624C17.4773 23.8291 17.2815 24.2894 16.964 24.2894H13.9701C13.9179 24.2894 13.8665 24.3015 13.8199 24.3249L7.97722 27.2462C7.75823 27.3557 7.49945 27.2016 7.49129 26.9569ZM31.8613 19.7548C31.8613 22.023 30.4388 23.9995 28.3344 25.034V26.7252C28.3344 26.985 28.0521 27.1464 27.8282 27.0147L25.7074 25.7672C25.4669 25.7895 25.2227 25.8009 24.9754 25.8009C21.1724 25.8009 18.0895 23.094 18.0895 19.7548C18.0895 16.4156 21.1724 13.7086 24.9754 13.7086C28.7784 13.7086 31.8613 16.4156 31.8613 19.7548Z" fill="url(#paint0_linear_36_4)"/>
<defs>
<linearGradient id="paint0_linear_36_4" x1="32" y1="3.5" x2="0.999999" y2="27" gradientUnits="userSpaceOnUse">
<stop stop-color="#EE7765"/>
<stop offset="1" stop-color="#EB497D"/>
</linearGradient>
</defs>
</svg>
